<?xml version="1.0" encoding="iso-8859-1"?>
<!-- Generator: Adobe Illustrator 19.0.0, SVG Export Plug-In . SVG Version: 6.00 Build 0)  -->
<svg version="1.1" id="Capa_1" xmlns="http://www.w3.org/2000/svg" xmlns:xlink="http://www.w3.org/1999/xlink" x="0px" y="0px"
	 viewBox="0 0 280.631 280.631" style="enable-background:new 0 0 280.631 280.631;" xml:space="preserve">
<g>
	<path d="M278.873,45.935L255.897,22.96c-2.342-2.342-6.142-2.343-8.485,0.001c-2.343,2.343-2.343,6.03,0.001,8.374l12.205,12.092
		h-59.713c-0.174-0.273-0.342-0.549-0.526-0.816c-5.313-7.7-14.551-12.483-24.108-12.483c-9.623,0-18.049,4.8-23.087,12.847
		c-0.081-0.121-0.163-0.242-0.246-0.362c-5.313-7.7-14.551-12.483-24.108-12.484c-11.616,0-21.487,6.992-25.763,18.249
		l-34.736,90.969l-17.05-27.292c-4.794-7.856-12.634-12.36-21.522-12.361c-10.123-0.001-20.014,5.825-25.196,14.842
		c-4.771,8.3-4.749,17.833,0.052,26.185c2.006,3.658,56.052,102.174,59.376,108.253c3.23,6.573,9.974,10.456,17.325,10.456h81.645
		c7.732,0,14.697-4.258,17.743-11.365c0.105-0.246,0.203-0.328,0.292-0.58l4.023-11.367c20.432-19.435,29.672-39.698,34.86-53.352
		c5.644-14.851,5.484-30.309-0.426-41.385c-3.293-6.171-8.243-10.603-14.128-12.733c-2.977-8.569-9.929-15.281-18.345-18.012
		l16.097-42.287c1.602-4.222,2.218-8.535,1.896-12.695c-0.006-0.075-0.017-0.149-0.024-0.225c0.008,0,0.016,0.002,0.024,0.002
		h56.697L248.002,68.21c-2.343,2.344-2.343,6.198,0.001,8.541c1.171,1.172,2.707,1.785,4.242,1.785c1.535,0,3.071-0.572,4.243-1.744
		l22.386-22.379C281.217,52.071,281.217,48.279,278.873,45.935z M190.864,64.079l-18.097,47.543
		c-1.68,4.412,1.252,9.379,5.959,9.727c7.101,0.525,12.996,5.977,14.67,12.592c0.688,2.725,2.771,4.969,5.51,5.602
		c10.974,2.539,15.87,20.281,8.757,39c-5.648,14.861-14.722,32.884-32.703,49.707c-0.738,0.69-1.329,1.523-1.727,2.453
		l-4.557,12.633c-1.151,2.686-3.792,4.092-6.714,4.092H80.316c-2.857,0-5.452-1.33-6.642-3.929c0,0-59.498-108.655-59.606-108.842
		c-6.693-11.492,4.256-23.049,14.69-23.049c4.271,0.001,8.455,1.993,11.308,6.701l22.161,35.495
		c1.462,2.245,3.788,3.331,6.103,3.331c2.844,0,5.669-1.62,6.844-4.694l38.112-99.807c2.805-7.386,8.649-10.508,14.543-10.508
		c10.138,0,20.417,9.247,15.593,21.952l-17.07,46.105c-1.054,2.845,0.374,6.009,3.204,7.102c0.703,0.271,1.426,0.399,2.137,0.399
		c2.386,0,4.636-1.449,5.542-3.811l23.493-61.238c2.805-7.385,8.65-10.509,14.543-10.509
		C185.409,42.127,195.687,51.374,190.864,64.079z"/>
</g>
<g>
</g>
<g>
</g>
<g>
</g>
<g>
</g>
<g>
</g>
<g>
</g>
<g>
</g>
<g>
</g>
<g>
</g>
<g>
</g>
<g>
</g>
<g>
</g>
<g>
</g>
<g>
</g>
<g>
</g>
</svg>
